<?xml version="1.0"?>
<svg xmlns="http://www.w3.org/2000/svg" xmlns:xlink="http://www.w3.org/1999/xlink" xmlns:svgjs="http://svgjs.com/svgjs" version="1.1" width="512" height="512" x="0" y="0" viewBox="0 0 64 64" style="enable-background:new 0 0 512 512" xml:space="preserve" class=""><g><g xmlns="http://www.w3.org/2000/svg"><g><circle cx="25" cy="39" fill="#6874e2" r="23" data-original="#243242" style="" class=""/></g><g><path d="m41.822 23.323c-4.198-4.504-10.179-7.323-16.822-7.323-12.703 0-23 10.297-23 23 0 .642.033 1.276.085 1.905 2.416.488 4.915.746 7.474.746 13.714 0 25.707-7.353 32.263-18.328z" fill="#d8dbfa" data-original="#4d5d7a" style="" class=""/></g><g><path d="m42.162 30.838c1.179 2.473 1.838 5.24 1.838 8.162 0 10.493-8.507 19-19 19s-19-8.507-19-19 8.507-19 19-19c6.893 0 12.929 3.671 16.259 9.164z" fill="#ecfa97" data-original="#ecfa97" style="" class=""/></g><g><path d="m39.512 26.75c-3.486-4.125-8.689-6.75-14.512-6.75-10.493 0-19 8.507-19 19 0 .847.075 1.675.182 2.493 1.113.099 2.238.159 3.377.159 12.232-.001 23.095-5.851 29.953-14.902z" fill="#f0fec5" data-original="#f0fec5" style="" class=""/></g><g><path d="m60 1.985h-20c-1.105 0-2 .895-2 2v16.015c0 1.105.895 2 2 2h4.6l-5.6 12 12-12h9c1.105 0 2-.895 2-2v-16.015c0-1.105-.895-2-2-2z" fill="#ffdea1" data-original="#cbc3b6" style="" class=""/></g><g><path d="m38 3.985v16.015c0 1.105.895 2 2 2h2.583c2.893-5.323 4.536-11.424 4.536-17.908 0-.708-.023-1.409-.062-2.107h-7.057c-1.105 0-2 .895-2 2z" fill="#fff0cc" data-original="#e7e4dd" style="" class=""/></g><g><path d="m50 17.825-5.823-5.416c-1.508-1.402-1.576-3.843-.15-5.335 1.234-1.291 3.187-1.436 4.582-.341l1.391 1.092 1.391-1.091c1.396-1.095 3.349-.95 4.582.341 1.426 1.492 1.358 3.933-.15 5.335z" fill="#ca2b1d" data-original="#ca2b1d" style="" class=""/></g><g><path d="m44.027 7.074c-1.426 1.492-1.358 3.933.15 5.335l1.632 1.518c.684-2.528 1.119-5.158 1.258-7.867-1.081-.184-2.219.156-3.04 1.014z" fill="#ed634a" data-original="#ed634a" style="" class=""/></g><g><g><path d="m20.999 53c-.024 0-.049-.001-.074-.003-.489-.036-.88-.422-.923-.911l-1.692-19.472-3.417 6.832c-.169.339-.516.553-.894.553h-5v-2h4.382l4.724-9.447c.199-.401.647-.62 1.081-.535.44.084.771.45.81.896l1.464 16.836 3.566-14.981c.105-.442.496-.758.951-.768h.022c.445 0 .838.295.961.726l2.757 9.648 2.294-14.529c.075-.473.475-.827.953-.843.494.004.901.308 1.009.774l2.821 12.224h4.204v2h-5c-.465 0-.869-.321-.974-.775l-1.842-7.979-2.196 13.911c-.073.463-.459.813-.927.842-.457.032-.895-.273-1.022-.724l-2.95-10.327-4.115 17.284c-.109.452-.513.767-.973.768z" fill="#6874e2" data-original="#d76e31" style="" class=""/></g></g></g></g></svg>
